<?xml version="1.0" encoding="UTF-8" standalone="no"?>
<!-- Created with Inkscape (http://www.inkscape.org/) -->

<svg
   xmlns:dc="http://purl.org/dc/elements/1.1/"
   xmlns:cc="http://creativecommons.org/ns#"
   xmlns:rdf="http://www.w3.org/1999/02/22-rdf-syntax-ns#"
   xmlns:svg="http://www.w3.org/2000/svg"
   xmlns="http://www.w3.org/2000/svg"
   xmlns:sodipodi="http://sodipodi.sourceforge.net/DTD/sodipodi-0.dtd"
   xmlns:inkscape="http://www.inkscape.org/namespaces/inkscape"
   width="1920"
   height="1080"
   viewBox="0 0 507.99999 285.75001"
   version="1.1"
   id="svg8"
   inkscape:version="0.92.4 (5da689c313, 2019-01-14)"
   sodipodi:docname="Logo.svg">
  <defs
     id="defs2">
    <inkscape:perspective
       sodipodi:type="inkscape:persp3d"
       inkscape:vp_x="0 : 142.875 : 1"
       inkscape:vp_y="0 : 1000 : 0"
       inkscape:vp_z="507.99999 : 142.875 : 1"
       inkscape:persp3d-origin="254 : 95.250003 : 1"
       id="perspective970" />
  </defs>
  <sodipodi:namedview
     id="base"
     pagecolor="#ffffff"
     bordercolor="#666666"
     borderopacity="1.0"
     inkscape:pageopacity="0.0"
     inkscape:pageshadow="2"
     inkscape:zoom="0.49497475"
     inkscape:cx="1008.4782"
     inkscape:cy="499.55483"
     inkscape:document-units="mm"
     inkscape:current-layer="layer1"
     showgrid="false"
     units="px"
     inkscape:window-width="1920"
     inkscape:window-height="1001"
     inkscape:window-x="-9"
     inkscape:window-y="-9"
     inkscape:window-maximized="1" />
  <metadata
     id="metadata5">
    <rdf:RDF>
      <cc:Work
         rdf:about="">
        <dc:format>image/svg+xml</dc:format>
        <dc:type
           rdf:resource="http://purl.org/dc/dcmitype/StillImage" />
        <dc:title></dc:title>
      </cc:Work>
    </rdf:RDF>
  </metadata>
  <g
     inkscape:label="Camada 1"
     inkscape:groupmode="layer"
     id="layer1"
     transform="translate(0,-11.249983)">
    <circle
       style="opacity:1;fill:none;fill-opacity:1;stroke:#000000;stroke-width:8.658288;stroke-miterlimit:4;stroke-dasharray:none;stroke-opacity:1"
       id="path815"
       cx="254"
       cy="154.12498"
       r="125.67085" />
    <circle
       style="opacity:1;fill:none;fill-opacity:1;stroke:#000000;stroke-width:5.99419928;stroke-miterlimit:4;stroke-dasharray:none;stroke-opacity:1"
       id="path815-7"
       cx="254"
       cy="154.12498"
       r="87.002899" />
    <circle
       style="opacity:1;fill:none;fill-opacity:1;stroke:#000000;stroke-width:3.33011079;stroke-miterlimit:4;stroke-dasharray:none;stroke-opacity:1"
       id="path815-7-5"
       cx="254"
       cy="154.12498"
       r="48.334946" />
  </g>
  <g
     inkscape:groupmode="layer"
     id="layer2"
     inkscape:label="Camada 2">
    <circle
       style="opacity:1;fill:#1a1a1a;fill-opacity:1;stroke:#000000;stroke-width:0.99906665;stroke-miterlimit:4;stroke-dasharray:none;stroke-opacity:1"
       id="path815-9"
       cx="179.53101"
       cy="39.401592"
       r="14.500484" />
    <circle
       style="opacity:1;fill:#1a1a1a;fill-opacity:1;stroke:#000000;stroke-width:0.66604376;stroke-miterlimit:4;stroke-dasharray:none;stroke-opacity:1"
       id="path815-9-9-6-9"
       cx="221.29918"
       cy="61.778133"
       r="9.6669779" />
    <circle
       style="opacity:1;fill:#1a1a1a;fill-opacity:1;stroke:#000000;stroke-width:0.6660437;stroke-miterlimit:4;stroke-dasharray:none;stroke-opacity:1"
       id="path815-9-9-6"
       cx="272.08038"
       cy="184.72212"
       r="9.6669779" />
    <circle
       style="opacity:1;fill:#1a1a1a;fill-opacity:1;stroke:#000000;stroke-width:0.66604364;stroke-miterlimit:4;stroke-dasharray:none;stroke-opacity:1"
       id="path815-9-9"
       cx="339.74011"
       cy="144.82085"
       r="9.6669779" />
    <circle
       style="opacity:1;fill:#1a1a1a;fill-opacity:1;stroke:#000000;stroke-width:0.33302182;stroke-miterlimit:4;stroke-dasharray:none;stroke-opacity:1"
       id="path815-9-3"
       cx="254"
       cy="142.875"
       r="4.8334889" />
    <circle
       id="path932"
       style="fill:#000000;stroke:none"
       cx="256.04422"
       cy="143.02808"
       r="1.5" />
    <flowRoot
       xml:space="preserve"
       id="flowRoot937"
       style="font-style:normal;font-weight:normal;font-size:40px;line-height:1.25;font-family:sans-serif;letter-spacing:0px;word-spacing:0px;fill:#000000;fill-opacity:1;stroke:none"
       transform="scale(0.26458333)"><flowRegion
         id="flowRegion939"><rect
           id="rect941"
           width="676.80219"
           height="379.81735"
           x="214.15234"
           y="419.36023" /></flowRegion><flowPara
         id="flowPara943"
         style="font-size:192px">DEVRADAR</flowPara></flowRoot>    <g
       aria-label="DEVRADAR"
       transform="matrix(0.26458333,0,0,0.26458333,25.123336,178.53604)"
       style="font-style:normal;font-weight:normal;font-size:40px;line-height:1.25;font-family:sans-serif;letter-spacing:0px;word-spacing:0px;fill:#000000;fill-opacity:1;stroke:none"
       id="flowRoot945">
      <g
         aria-label="DEV"
         transform="translate(-46.467019,-382.73056)"
         style="font-style:normal;font-weight:normal;font-size:40px;line-height:1.25;font-family:sans-serif;letter-spacing:0px;word-spacing:0px;fill:#000000;fill-opacity:1;stroke:none"
         id="flowRoot993">
        <path
           d="m 130.62695,248.0893 q 0,19.03125 -8.34375,34.5 -8.25,15.46875 -22.03125,24 -9.562497,5.90625 -21.374997,8.53125 -11.71875,2.625 -30.9375,2.625 h -35.25 V 178.1518 h 34.875 q 20.4375,0 32.4375,3 12.09375,2.90625 20.437497,8.0625 14.25,8.90625 22.21875,23.71875 7.96875,14.8125 7.96875,35.15625 z m -19.40625,-0.28125 q 0,-16.40625 -5.71875,-27.65625 -5.718747,-11.25 -17.062497,-17.71875 -8.25,-4.6875 -17.53125,-6.46875 -9.28125,-1.875 -22.21875,-1.875 h -17.4375 v 107.71875 h 17.4375 q 13.40625,0 23.34375,-1.96875 10.03125,-1.96875 18.375,-7.3125 10.406247,-6.65625 15.562497,-17.53125 5.25,-10.875 5.25,-27.1875 z"
           style="font-size:192px"
           id="path1044" />
        <path
           d="M 252.7832,317.74555 H 160.81445 V 178.1518 h 91.96875 v 16.5 h -73.40625 v 38.25 h 73.40625 v 16.5 h -73.40625 v 51.84375 h 73.40625 z"
           style="font-size:192px"
           id="path1046" />
        <path
           d="m 392.37695,178.1518 -50.8125,139.59375 h -24.75 L 266.00195,178.1518 h 19.875 l 43.78125,122.8125 43.78125,-122.8125 z"
           style="font-size:192px"
           id="path1048" />
      </g>
      <flowRoot
         xml:space="preserve"
         id="flowRoot993-9"
         style="font-style:normal;font-weight:normal;font-size:40px;line-height:1.25;font-family:sans-serif;letter-spacing:0px;word-spacing:0px;fill:#000000;fill-opacity:1;stroke:none"
         transform="translate(1385.4266,-396.29415)"><flowRegion
           id="flowRegion995-2"><rect
             id="rect997-4"
             width="448.50772"
             height="501.03568"
             x="-6.0609155"
             y="142.57845" /></flowRegion><flowPara
           id="flowPara999-4"
           style="font-size:192px">RADAR</flowPara></flowRoot>      <g
         aria-label="RADAR"
         transform="translate(-284.90363,-503.05596)"
         style="font-style:normal;font-weight:normal;font-size:40px;line-height:1.25;font-family:sans-serif;letter-spacing:0px;word-spacing:0px;fill:#000000;fill-opacity:1;stroke:none"
         id="flowRoot1025">
        <path
           d="m 1576.748,568.26312 h -24.0937 l -46.6875,-55.5 h -26.1563 v 55.5 H 1461.248 V 428.66937 h 39.0938 q 12.6562,0 21.0937,1.6875 8.4375,1.59375 15.1875,5.8125 7.5938,4.78125 11.8125,12.09375 4.3125,7.21875 4.3125,18.375 0,15.09375 -7.5937,25.3125 -7.5938,10.125 -20.9063,15.28125 z m -43.4062,-100.3125 q 0,-6 -2.1563,-10.59375 -2.0625,-4.6875 -6.9375,-7.875 -4.0312,-2.71875 -9.5625,-3.75 -5.5312,-1.125 -13.0312,-1.125 h -21.8438 v 52.6875 h 18.75 q 8.8125,0 15.375,-1.5 6.5625,-1.59375 11.1563,-5.8125 4.2187,-3.9375 6.1875,-9 2.0625,-5.15625 2.0625,-13.03125 z"
           style="font-size:192px"
           id="path1033" />
        <path
           d="m 1704.8105,568.26312 h -19.7812 l -13.6875,-38.90625 h -60.375 l -13.6875,38.90625 h -18.8438 l 50.8125,-139.59375 h 24.75 z m -39.1875,-54.84375 -24.4687,-68.53125 -24.5625,68.53125 z"
           style="font-size:192px"
           id="path1035" />
        <path
           d="m 1843.9355,498.60687 q 0,19.03125 -8.3437,34.5 -8.25,15.46875 -22.0313,24 -9.5625,5.90625 -21.375,8.53125 -11.7187,2.625 -30.9375,2.625 h -35.25 V 428.66937 h 34.875 q 20.4375,0 32.4375,3 12.0938,2.90625 20.4375,8.0625 14.25,8.90625 22.2188,23.71875 7.9687,14.8125 7.9687,35.15625 z m -19.4062,-0.28125 q 0,-16.40625 -5.7188,-27.65625 -5.7187,-11.25 -17.0625,-17.71875 -8.25,-4.6875 -17.5312,-6.46875 -9.2813,-1.875 -22.2188,-1.875 h -17.4375 v 107.71875 h 17.4375 q 13.4063,0 23.3438,-1.96875 10.0312,-1.96875 18.375,-7.3125 10.4062,-6.65625 15.5625,-17.53125 5.25,-10.875 5.25,-27.1875 z"
           style="font-size:192px"
           id="path1037" />
        <path
           d="m 1984.1855,568.26312 h -19.7812 l -13.6875,-38.90625 h -60.375 l -13.6875,38.90625 h -18.8438 l 50.8125,-139.59375 h 24.75 z m -39.1875,-54.84375 -24.4687,-68.53125 -24.5625,68.53125 z"
           style="font-size:192px"
           id="path1039" />
        <path
           d="m 2120.873,568.26312 h -24.0937 l -46.6875,-55.5 h -26.1563 v 55.5 H 2005.373 V 428.66937 h 39.0938 q 12.6562,0 21.0937,1.6875 8.4375,1.59375 15.1875,5.8125 7.5938,4.78125 11.8125,12.09375 4.3125,7.21875 4.3125,18.375 0,15.09375 -7.5937,25.3125 -7.5938,10.125 -20.9063,15.28125 z m -43.4062,-100.3125 q 0,-6 -2.1563,-10.59375 -2.0625,-4.6875 -6.9375,-7.875 -4.0312,-2.71875 -9.5625,-3.75 -5.5312,-1.125 -13.0312,-1.125 h -21.8438 v 52.6875 h 18.75 q 8.8125,0 15.375,-1.5 6.5625,-1.59375 11.1563,-5.8125 4.2187,-3.9375 6.1875,-9 2.0625,-5.15625 2.0625,-13.03125 z"
           style="font-size:192px"
           id="path1041" />
      </g>
    </g>
  </g>
  <g
     inkscape:groupmode="layer"
     id="layer3"
     inkscape:label="Camada 3"
     sodipodi:insensitive="true">
    <path
       style="fill:none;stroke:#000000;stroke-width:7.17020845;stroke-linecap:butt;stroke-linejoin:miter;stroke-miterlimit:4;stroke-dasharray:none;stroke-opacity:1"
       d="M 251.78937,145.70613 335.71199,43.60918"
       id="path934"
       inkscape:connector-curvature="0" />
  </g>
</svg>
